<svg width="151" height="127" viewBox="0 0 151 127" fill="none" xmlns="http://www.w3.org/2000/svg">
<g clip-path="url(#clip0_3_171)">
<path d="M7.01093 98.9121H0V120.373H7.01093C14.4813 120.373 15.8595 116.555 15.8595 109.232C15.8595 101.909 14.2665 98.9121 7.01093 98.9121ZM7.01093 116.585H4.2245V102.7H7.01093C11.1131 102.7 11.5127 104.531 11.5127 109.232C11.5127 113.933 11.1158 116.585 7.01093 116.585Z" fill="#4FAF5A"/>
<path d="M25.1676 104.213C20.6984 104.213 18.4013 107.086 18.4013 112.702C18.4013 118.318 20.3613 120.75 24.9827 120.75C27.0651 120.75 29.8515 120.245 31.3521 119.867L31.2896 116.742C29.9412 116.867 27.462 117.028 25.627 117.028C23.4223 117.028 22.566 116.175 22.5361 114.283H31.5369L31.8441 111.349C31.8441 106.583 29.6694 104.216 25.1703 104.216L25.1676 104.213ZM22.5035 111.064C22.5334 108.664 23.2076 107.686 25.1676 107.686C27.1276 107.686 27.8018 108.507 27.8018 111.064H22.5062H22.5035Z" fill="#4FAF5A"/>
<path d="M39.0671 98.2817H34.9649V120.373H39.0671V98.2817Z" fill="#4FAF5A"/>
<path d="M47.1491 104.594H43.0469V120.373H47.1491V104.594Z" fill="#4FAF5A"/>
<path d="M47.1491 98.2817H43.0469V102.575H47.1491V98.2817Z" fill="#4FAF5A"/>
<path d="M57.0987 116.775H56.2424L53.793 104.594H49.506L53.1814 120.373H60.1624L63.8351 104.594H59.6704L57.0987 116.775Z" fill="#4FAF5A"/>
<path d="M71.9796 104.213C67.5104 104.213 65.2133 107.086 65.2133 112.702C65.2133 118.318 67.1733 120.75 71.7947 120.75C73.8771 120.75 76.6635 120.245 78.1641 119.867L78.1016 116.742C76.7559 116.867 74.274 117.028 72.439 117.028C70.2343 117.028 69.378 116.175 69.3481 114.283H78.349L78.6561 111.349C78.6561 106.583 76.4814 104.216 71.9823 104.216L71.9796 104.213ZM69.3155 111.064C69.3454 108.664 70.0196 107.686 71.9796 107.686C73.9396 107.686 74.6138 108.507 74.6138 111.064H69.3182H69.3155Z" fill="#4FAF5A"/>
<path d="M85.6644 104.594H81.5921V120.373H85.6943V109.8C86.643 109.452 88.603 108.854 90.563 108.474V104.213C88.8803 104.561 86.7681 105.569 85.6644 106.265V104.591V104.594Z" fill="#4FAF5A"/>
<path d="M99.1072 116.775H98.4031L95.6166 104.594H91.5743L95.3394 120.373H98.2182L96.5355 127H100.545L105.933 104.594H101.891L99.1072 116.775Z" fill="#4FAF5A"/>
<path d="M116.312 98.9121H108.657V120.373H112.882V114.123H116.31C121.208 114.123 123.717 111.346 123.717 106.36C123.717 101.374 121.206 98.9121 116.31 98.9121H116.312ZM116.282 110.401H112.884V102.637H116.282C118.395 102.637 119.436 103.678 119.436 106.363C119.436 109.047 118.395 110.403 116.282 110.403V110.401Z" fill="#4FAF5A"/>
<path d="M130.397 104.594H126.324V120.373H130.427V109.8C131.375 109.452 133.335 108.854 135.295 108.474V104.213C133.613 104.561 131.5 105.569 130.397 106.265V104.591V104.594Z" fill="#4FAF5A"/>
<path d="M143.959 104.213C138.631 104.213 136.918 107.591 136.918 112.449C136.918 117.308 138.634 120.75 143.959 120.75C149.285 120.75 151 117.31 151 112.449C151 107.588 149.285 104.213 143.959 104.213ZM143.959 117.153C141.695 117.153 141.08 115.512 141.08 112.449C141.08 109.387 141.692 107.811 143.959 107.811C146.226 107.811 146.838 109.39 146.838 112.449C146.838 115.509 146.226 117.153 143.959 117.153Z" fill="#4FAF5A"/>
<path d="M60.7279 75.1202C54.9865 75.1229 49.245 75.0305 43.5064 75.1636C40.7526 75.2288 39.6135 74.2425 39.7223 71.3161C39.8799 67.0337 39.9479 62.7242 39.6842 58.45C39.4613 54.8524 40.9537 53.8145 44.1751 53.8444C54.3639 53.9395 64.5555 53.7221 74.7416 53.915C80.6379 54.0264 85.4197 52.1705 88.9619 47.2306C90.7397 44.7525 93.2054 43.8613 96.0978 43.8803C99.9717 43.9075 103.854 44.0135 107.722 43.8531C111.112 43.7118 111.993 44.8042 110.952 48.2958C106.254 64.0638 92.6862 74.805 76.6554 75.0984C71.3462 75.1962 66.037 75.1147 60.7251 75.1174L60.7279 75.1202Z" fill="#4FAF5A"/>
<path d="M61.5244 0.0978098C66.8227 0.0978098 72.1264 -0.0434854 77.422 0.124982C93.0124 0.619515 106.629 11.7628 110.99 27.1694C111.892 30.354 111.27 31.5985 108.054 31.5387C104.044 31.4626 100.034 31.5197 96.0244 31.5034C93.132 31.4925 90.8186 30.4219 89.0054 27.952C85.4578 23.1154 80.521 21.1644 74.7524 21.1671C64.5827 21.1725 54.4129 21.0611 44.2458 21.2269C41.0108 21.2785 39.4885 20.447 39.7032 16.806C39.9479 12.6867 39.8827 8.53477 39.7141 4.41003C39.5809 1.20372 40.6982 -0.0951125 43.9114 0.00542448C49.7779 0.192912 55.6552 0.0570516 61.5271 0.0570516C61.5271 0.0706377 61.5271 0.0842238 61.5271 0.0978098H61.5244Z" fill="#4FAF5A"/>
<path d="M49.0466 48.3855C47.4699 48.3855 45.8905 48.342 44.3137 48.3936C41.617 48.4833 39.6788 48.1735 39.6543 44.4319C39.6325 40.7936 41.3153 40.2501 44.1561 40.3316C47.8831 40.4376 51.6156 40.28 55.3399 40.3751C57.9006 40.4403 59.9694 41.5408 59.9069 44.5216C59.8498 47.247 57.8843 48.2632 55.4975 48.3692C53.3499 48.4643 51.1969 48.3882 49.0466 48.3882V48.3855Z" fill="#4FAF5A"/>
<path d="M49.1961 34.5548C47.4889 34.5548 45.779 34.5005 44.0718 34.5657C41.6524 34.6608 39.6298 34.7668 39.6353 31.1013C39.6407 27.6803 41.0217 26.7836 43.993 26.9113C47.6874 27.0689 51.3926 26.9466 55.0925 27.001C57.5799 27.039 59.8444 27.7944 59.8878 30.7969C59.9341 33.862 57.7022 34.563 55.1713 34.5548C53.1787 34.5494 51.186 34.5548 49.1934 34.5548H49.1961Z" fill="#4FAF5A"/>
</g>
<defs>
<clipPath id="clip0_3_171">
<rect width="151" height="127" fill="white"/>
</clipPath>
</defs>
</svg>
