<svg width="300" height="300" viewBox="0 0 300 300" fill="none" xmlns="http://www.w3.org/2000/svg">
<g clip-path="url(#clip0_17_349)">
<path d="M13.929 233.651H0V284.345H13.929C28.7707 284.345 31.509 275.327 31.509 258.029C31.509 240.73 28.3441 233.651 13.929 233.651ZM13.929 275.397H8.39304V242.598H13.929C22.079 242.598 22.8729 246.924 22.8729 258.029C22.8729 269.133 22.0844 275.397 13.929 275.397Z" fill="#FAFAFA"/>
<path d="M50.0018 246.173C41.1227 246.173 36.5589 252.958 36.5589 266.225C36.5589 279.492 40.453 285.237 49.6345 285.237C53.7717 285.237 59.3076 284.043 62.2889 283.151L62.1647 275.77C59.4858 276.065 54.5602 276.444 50.9146 276.444C46.5344 276.444 44.8331 274.428 44.7737 269.961H62.6562L63.2665 263.029C63.2665 251.77 58.9457 246.18 50.0072 246.18L50.0018 246.173ZM44.7089 262.355C44.7683 256.687 46.1077 254.376 50.0018 254.376C53.8959 254.376 55.2353 256.315 55.2353 262.355H44.7143H44.7089Z" fill="#FAFAFA"/>
<path d="M77.6167 232.162H69.4667V284.345H77.6167V232.162Z" fill="#FAFAFA"/>
<path d="M93.6737 247.072H85.5237V284.345H93.6737V247.072Z" fill="#FAFAFA"/>
<path d="M93.6737 232.162H85.5237V242.303H93.6737V232.162Z" fill="#FAFAFA"/>
<path d="M113.441 275.847H111.74L106.874 247.072H98.3563L105.658 284.345H119.528L126.825 247.072H118.55L113.441 275.847Z" fill="#FAFAFA"/>
<path d="M143.006 246.173C134.127 246.173 129.563 252.958 129.563 266.225C129.563 279.492 133.457 285.237 142.639 285.237C146.776 285.237 152.312 284.043 155.293 283.151L155.169 275.77C152.495 276.065 147.564 276.444 143.919 276.444C139.538 276.444 137.837 274.428 137.778 269.961H155.66L156.27 263.029C156.27 251.77 151.95 246.18 143.011 246.18L143.006 246.173ZM137.713 262.355C137.772 256.687 139.112 254.376 143.006 254.376C146.9 254.376 148.239 256.315 148.239 262.355H137.718H137.713Z" fill="#FAFAFA"/>
<path d="M170.194 247.072H162.104V284.345H170.254V259.37C172.138 258.549 176.033 257.136 179.927 256.238V246.173C176.583 246.995 172.387 249.376 170.194 251.019V247.066V247.072Z" fill="#FAFAFA"/>
<path d="M196.902 275.847H195.503L189.967 247.072H181.936L189.416 284.345H195.136L191.792 300H199.759L210.463 247.072H202.432L196.902 275.847Z" fill="#FAFAFA"/>
<path d="M231.084 233.651H215.875V284.345H224.268V269.582H231.079C240.811 269.582 245.796 263.022 245.796 251.244C245.796 239.466 240.806 233.651 231.079 233.651H231.084ZM231.025 260.789H224.274V242.451H231.025C235.221 242.451 237.29 244.909 237.29 251.251C237.29 257.592 235.221 260.795 231.025 260.795V260.789Z" fill="#FAFAFA"/>
<path d="M259.066 247.072H250.976V284.345H259.126V259.37C261.011 258.549 264.905 257.136 268.799 256.238V246.173C265.456 246.995 261.259 249.376 259.066 251.019V247.066V247.072Z" fill="#FAFAFA"/>
<path d="M286.012 246.173C275.426 246.173 272.023 254.152 272.023 265.628C272.023 277.105 275.431 285.237 286.012 285.237C296.592 285.237 300 277.111 300 265.628C300 254.145 296.592 246.173 286.012 246.173ZM286.012 276.739C281.513 276.739 280.292 272.862 280.292 265.628C280.292 258.394 281.507 254.672 286.012 254.672C290.516 254.672 291.731 258.401 291.731 265.628C291.731 272.856 290.516 276.739 286.012 276.739Z" fill="#FAFAFA"/>
<path d="M120.652 177.449C109.245 177.456 97.838 177.237 86.4367 177.552C80.9655 177.706 78.7025 175.376 78.9186 168.463C79.2318 158.347 79.3669 148.167 78.843 138.071C78.4001 129.573 81.3652 127.121 87.7653 127.191C108.008 127.416 128.256 126.903 148.493 127.358C160.208 127.621 169.708 123.238 176.746 111.569C180.278 105.715 185.176 103.609 190.923 103.654C198.619 103.719 206.332 103.969 214.017 103.59C220.752 103.256 222.502 105.837 220.434 114.085C211.101 151.332 184.145 176.705 152.296 177.398C141.748 177.629 131.2 177.436 120.646 177.443L120.652 177.449Z" fill="#FAFAFA"/>
<path d="M122.234 0.231097C132.76 0.231097 143.297 -0.102671 153.818 0.295283C184.793 1.46347 211.846 27.7862 220.509 64.1798C222.302 71.7025 221.065 74.6422 214.676 74.501C206.71 74.3212 198.743 74.456 190.777 74.4175C185.03 74.3919 180.434 71.8629 176.832 66.0284C169.784 54.6032 159.976 49.9947 148.515 50.0011C128.31 50.0139 108.105 49.7508 87.9055 50.1423C81.4784 50.2643 78.4539 48.3002 78.8806 39.6992C79.3667 29.9686 79.237 20.1609 78.9022 10.4175C78.6375 2.84348 80.8573 -0.224625 87.2412 0.0128637C98.8964 0.455749 110.573 0.134818 122.239 0.134818C122.239 0.166911 122.239 0.199004 122.239 0.231097H122.234Z" fill="#FAFAFA"/>
<path d="M97.4437 114.296C94.3112 114.296 91.1732 114.194 88.0407 114.316C82.683 114.527 78.8321 113.796 78.7835 104.957C78.7403 96.3628 82.0835 95.0791 87.7274 95.2716C95.1321 95.5219 102.548 95.1497 109.947 95.3743C115.035 95.5284 119.145 98.1279 119.02 105.169C118.907 111.607 115.002 114.008 110.26 114.258C105.993 114.483 101.716 114.303 97.4437 114.303V114.296Z" fill="#FAFAFA"/>
<path d="M97.7406 81.6256C94.3488 81.6256 90.9517 81.4972 87.5599 81.6513C82.7531 81.8759 78.7348 82.1263 78.7456 73.4676C78.7564 65.3865 81.5 63.2684 87.4033 63.57C94.7431 63.9423 102.105 63.6535 109.455 63.7819C114.397 63.8717 118.896 65.6561 118.982 72.7487C119.074 79.9889 114.64 81.6449 109.612 81.6256C105.653 81.6128 101.694 81.6256 97.7352 81.6256H97.7406Z" fill="#FAFAFA"/>
</g>
<defs>
<clipPath id="clip0_17_349">
<rect width="300" height="300" fill="white"/>
</clipPath>
</defs>
</svg>
